<svg width="29" height="29" viewBox="0 0 29 29" fill="none" xmlns="http://www.w3.org/2000/svg">
<path d="M4.81644 4.62514V14.4567C7.56576 16.4142 13.2689 20.4942 14.0871 21.154C14.9053 21.8139 15.7697 21.429 16.0996 21.154L25.2054 14.2258V5.25198C25.2054 4.24903 24.5236 3.66838 24.1826 3.50342H5.93816C4.93521 3.50342 4.77245 4.25123 4.81644 4.62514Z" fill="white"/>
<path d="M13.8832 0.401472L12.5563 1.52319C12.4631 1.60231 12.4051 1.71515 12.395 1.83698C12.3848 1.95881 12.4234 2.07969 12.5022 2.17313L12.5095 2.17907C12.5888 2.26992 12.7008 2.32585 12.8211 2.33474C12.9414 2.34364 13.0603 2.30477 13.1521 2.22658L14.4791 1.10486C14.6173 0.987091 14.7931 0.922739 14.9747 0.923465C15.1563 0.924192 15.3316 0.989948 15.4688 1.10882L16.7674 2.22724C16.859 2.30538 16.9776 2.34463 17.0978 2.33662C17.218 2.32861 17.3303 2.27397 17.4107 2.18435L17.4173 2.17841C17.4971 2.08568 17.5368 1.96512 17.5278 1.84315C17.5187 1.72119 17.4617 1.60779 17.3692 1.52781L16.0699 0.410049C15.7668 0.14708 15.3795 0.00158699 14.9782 1.2907e-05C14.5769 -0.00156118 14.1884 0.140889 13.8832 0.401472Z" fill="#E71D36"/>
<path d="M3.38327 28.3197H26.5726C27.2187 28.3187 27.8381 28.0616 28.2949 27.6047C28.7518 27.1478 29.009 26.5284 29.01 25.8823V11.9446C29.01 11.9301 29.0067 11.9169 29.0054 11.903C29.0155 11.8158 29.0004 11.7275 28.9618 11.6487C28.9232 11.5698 28.8627 11.5037 28.7876 11.4583C28.7645 11.433 28.7401 11.409 28.7144 11.3864L27.7418 10.549C27.6499 10.4704 27.5309 10.4309 27.4102 10.439C27.2896 10.4471 27.1769 10.5023 27.0965 10.5926L27.0912 10.5979C27.0117 10.6906 26.9723 10.8111 26.9814 10.9329C26.9906 11.0547 27.0476 11.1679 27.14 11.2478L27.8098 11.8245L25.5353 13.4998V4.86321C25.5353 4.42572 25.3615 4.00614 25.0521 3.69678C24.7428 3.38742 24.3232 3.21362 23.8857 3.21362H6.07013C5.6332 3.2145 5.21447 3.38868 4.90582 3.69794C4.59717 4.00721 4.42383 4.42629 4.42383 4.86321V13.482L2.03786 11.74L2.61588 11.2504C2.70898 11.1712 2.76688 11.0583 2.7769 10.9365C2.78692 10.8147 2.74823 10.6938 2.66933 10.6005L2.66471 10.5965C2.58508 10.5054 2.47285 10.4491 2.35217 10.4399C2.23148 10.4306 2.11199 10.4691 2.01939 10.547L1.25662 11.1904C1.0946 11.3274 0.990022 11.5203 0.963651 11.7308C0.948111 11.7863 0.943627 11.8444 0.950454 11.9017C0.950454 11.9155 0.945835 11.9294 0.945835 11.9439V25.8823C0.946882 26.5284 1.20402 27.1478 1.6609 27.6047C2.11778 28.0616 2.73714 28.3187 3.38327 28.3197ZM5.34431 8.30558V4.86321C5.34431 4.67071 5.42077 4.4861 5.55689 4.34998C5.69301 4.21386 5.87763 4.13739 6.07013 4.13739H23.8857C24.0782 4.13739 24.2628 4.21386 24.3989 4.34998C24.5351 4.4861 24.6115 4.67071 24.6115 4.86321V14.1808L15.4972 20.9005C15.3647 20.9984 15.2043 21.0513 15.0396 21.0513C14.8749 21.0513 14.7145 20.9984 14.582 20.9005L5.34431 14.1557V8.30558ZM5.34431 15.2998L9.77775 18.537L7.14368 21.212L6.68971 21.6739L6.67256 21.6917L6.23508 22.1351L6.21859 22.1523L5.76396 22.6141L3.97712 24.4287C3.89129 24.5162 3.84372 24.6342 3.8449 24.7568C3.84608 24.8793 3.89589 24.9964 3.98339 25.0823C4.07089 25.1681 4.18891 25.2157 4.31147 25.2145C4.43404 25.2133 4.55112 25.1635 4.63696 25.076L7.05988 22.6102L7.51385 22.1483L7.531 22.1311L7.96781 21.6877L7.98497 21.6699L8.43894 21.208L10.5319 19.0827L13.4412 21.208L14.0409 21.6455C14.0522 21.6541 14.064 21.6607 14.0759 21.6686L14.1017 21.6864C14.3792 21.8735 14.7062 21.9734 15.0409 21.9734C15.3756 21.9734 15.7027 21.8735 15.9802 21.6864L16.0053 21.6686C16.0191 21.6594 16.0337 21.6508 16.0469 21.6409L16.6341 21.208L19.4648 19.1223L21.5209 21.21L21.9748 21.6719L21.992 21.6897L22.4288 22.1331L22.4459 22.1503L22.8999 22.6122L25.3242 25.074C25.41 25.1615 25.5271 25.2113 25.6496 25.2125C25.7722 25.2137 25.8902 25.1661 25.9777 25.0803C26.0652 24.9944 26.115 24.8774 26.1162 24.7548C26.1174 24.6322 26.0698 24.5142 25.984 24.4267L24.1972 22.6122L23.7432 22.1503L23.726 22.1331L23.2886 21.6897L23.2721 21.6719L22.8174 21.21L20.2177 18.5707L24.6115 15.3262L25.0734 14.9864L25.5353 14.6466L28.0875 12.7648V25.8823C28.0875 26.2848 27.9277 26.6708 27.643 26.9554C27.3584 27.24 26.9724 27.3999 26.5699 27.3999H3.38327C2.98077 27.3999 2.59476 27.24 2.31015 26.9554C2.02554 26.6708 1.86565 26.2848 1.86565 25.8823V12.7601L1.87554 12.7674L4.42053 14.6215L4.88242 14.9581L5.34431 15.2998Z" fill="#E71D36"/>
<path d="M3.38327 28.3197H26.5726C27.2187 28.3187 27.8381 28.0616 28.2949 27.6047C28.7518 27.1478 29.009 26.5284 29.01 25.8823V11.9446C29.01 11.9301 29.0067 11.9169 29.0054 11.903C29.0155 11.8158 29.0004 11.7275 28.9618 11.6487C28.9232 11.5698 28.8627 11.5037 28.7876 11.4583C28.7645 11.433 28.7401 11.409 28.7144 11.3864L27.7418 10.549C27.6499 10.4704 27.5309 10.4309 27.4102 10.439C27.2896 10.4471 27.1769 10.5023 27.0965 10.5926L27.0912 10.5979C27.0117 10.6906 26.9723 10.8111 26.9814 10.9329C26.9906 11.0547 27.0476 11.1679 27.14 11.2478L27.8098 11.8245L25.5353 13.4998V4.86321C25.5353 4.42572 25.3615 4.00614 25.0521 3.69678C24.7428 3.38742 24.3232 3.21362 23.8857 3.21362H6.07013C5.6332 3.2145 5.21447 3.38868 4.90582 3.69794C4.59717 4.00721 4.42383 4.42629 4.42383 4.86321V13.482L2.03786 11.74L2.61588 11.2504C2.70898 11.1712 2.76688 11.0583 2.7769 10.9365C2.78692 10.8147 2.74823 10.6938 2.66933 10.6005L2.66471 10.5965C2.58508 10.5054 2.47285 10.4491 2.35217 10.4399C2.23148 10.4306 2.11199 10.4691 2.01939 10.547L1.25662 11.1904C1.0946 11.3274 0.990022 11.5203 0.963651 11.7308C0.948111 11.7863 0.943627 11.8444 0.950454 11.9017C0.950454 11.9155 0.945835 11.9294 0.945835 11.9439V25.8823C0.946882 26.5284 1.20402 27.1478 1.6609 27.6047C2.11778 28.0616 2.73714 28.3187 3.38327 28.3197ZM5.34431 8.30558V4.86321C5.34431 4.67071 5.42077 4.4861 5.55689 4.34998C5.69301 4.21386 5.87763 4.13739 6.07013 4.13739H23.8857C24.0782 4.13739 24.2628 4.21386 24.3989 4.34998C24.5351 4.4861 24.6115 4.67071 24.6115 4.86321V14.1808L15.4972 20.9005C15.3647 20.9984 15.2043 21.0513 15.0396 21.0513C14.8749 21.0513 14.7145 20.9984 14.582 20.9005L5.34431 14.1557V8.30558Z" fill="#E71D36" fill-opacity="0.4"/>
<path d="M13.6365 7.95746H20.9673C21.0898 7.95746 21.2072 7.9088 21.2939 7.82218C21.3805 7.73556 21.4291 7.61808 21.4291 7.49558C21.4291 7.37308 21.3805 7.25559 21.2939 7.16897C21.2072 7.08235 21.0898 7.03369 20.9673 7.03369H13.6365C13.514 7.03369 13.3965 7.08235 13.3099 7.16897C13.2233 7.25559 13.1746 7.37308 13.1746 7.49558C13.1746 7.61808 13.2233 7.73556 13.3099 7.82218C13.3965 7.9088 13.514 7.95746 13.6365 7.95746Z" fill="#E71D36"/>
<path d="M21.4285 11.3984C21.4285 11.2759 21.3798 11.1584 21.2932 11.0718C21.2066 10.9852 21.0891 10.9365 20.9666 10.9365H9.35809C9.23559 10.9365 9.11811 10.9852 9.03149 11.0718C8.94487 11.1584 8.8962 11.2759 8.8962 11.3984C8.8962 11.5209 8.94487 11.6384 9.03149 11.725C9.11811 11.8116 9.23559 11.8603 9.35809 11.8603H20.9673C21.0896 11.8601 21.207 11.8114 21.2934 11.7248C21.3799 11.6382 21.4285 11.5208 21.4285 11.3984Z" fill="#E71D36"/>
</svg>
