<svg width="60" height="60" viewBox="0 0 60 60" fill="none" xmlns="http://www.w3.org/2000/svg">
<path d="M21.52 35.9002C19.8403 34.189 18.6959 32.0081 18.2317 29.6334C17.7674 27.2587 18.0042 24.7968 18.912 22.5594C19.8198 20.322 21.3579 18.4095 23.3316 17.0639C25.3053 15.7182 27.626 15 30 15C32.374 15 34.6947 15.7182 36.6684 17.0639C38.6421 18.4095 40.1802 20.322 41.088 22.5594C41.9958 24.7968 42.2326 27.2587 41.7683 29.6334C41.3041 32.0081 40.1597 34.189 38.48 35.9002L30.9467 43.5977C30.8227 43.7252 30.6752 43.8264 30.5128 43.8954C30.3503 43.9645 30.176 44 30 44C29.824 44 29.6497 43.9645 29.4872 43.8954C29.3248 43.8264 29.1773 43.7252 29.0533 43.5977L21.52 35.9002ZM36.6 33.9826C37.9052 32.6512 38.794 30.9549 39.1541 29.1082C39.5141 27.2616 39.3292 25.3475 38.6228 23.608C37.9163 21.8685 36.7201 20.3818 35.1852 19.3358C33.6504 18.2897 31.8459 17.7314 30 17.7314C28.1541 17.7314 26.3496 18.2897 24.8148 19.3358C23.2799 20.3818 22.0837 21.8685 21.3772 23.608C20.6708 25.3475 20.4859 27.2616 20.8459 29.1082C21.206 30.9549 22.0948 32.6512 23.4 33.9826L30 40.7145L36.6 33.9826ZM30 32.6906C28.5855 32.6906 27.229 32.1175 26.2288 31.0973C25.2286 30.0771 24.6667 28.6934 24.6667 27.2507C24.6667 25.8079 25.2286 24.4242 26.2288 23.404C27.229 22.3838 28.5855 21.8107 30 21.8107C31.4145 21.8107 32.771 22.3838 33.7712 23.404C34.7714 24.4242 35.3333 25.8079 35.3333 27.2507C35.3333 28.6934 34.7714 30.0771 33.7712 31.0973C32.771 32.1175 31.4145 32.6906 30 32.6906ZM30 29.9706C30.7072 29.9706 31.3855 29.6841 31.8856 29.174C32.3857 28.6639 32.6667 27.972 32.6667 27.2507C32.6667 26.5293 32.3857 25.8374 31.8856 25.3273C31.3855 24.8173 30.7072 24.5307 30 24.5307C29.2928 24.5307 28.6145 24.8173 28.1144 25.3273C27.6143 25.8374 27.3333 26.5293 27.3333 27.2507C27.3333 27.972 27.6143 28.6639 28.1144 29.174C28.6145 29.6841 29.2928 29.9706 30 29.9706Z" fill="#E71D36"/>
<path d="M36.6 33.9827C37.9052 32.6513 38.794 30.955 39.1541 29.1083C39.5141 27.2617 39.3292 25.3476 38.6228 23.6081C37.9163 21.8686 36.7201 20.3819 35.1852 19.3359C33.6504 18.2899 31.8459 17.7315 30 17.7315C28.1541 17.7315 26.3496 18.2899 24.8148 19.3359C23.2799 20.3819 22.0837 21.8686 21.3772 23.6081C20.6708 25.3476 20.4859 27.2617 20.8459 29.1083C21.206 30.955 22.0948 32.6513 23.4 33.9827L30 40.7147L36.6 33.9827ZM30 32.6907C28.5855 32.6907 27.229 32.1176 26.2288 31.0974C25.2286 30.0772 24.6667 28.6935 24.6667 27.2508C24.6667 25.808 25.2286 24.4243 26.2288 23.4041C27.229 22.384 28.5855 21.8108 30 21.8108C31.4145 21.8108 32.771 22.384 33.7712 23.4041C34.7714 24.4243 35.3333 25.808 35.3333 27.2508C35.3333 28.6935 34.7714 30.0772 33.7712 31.0974C32.771 32.1176 31.4145 32.6907 30 32.6907ZM30 29.9708C30.7072 29.9708 31.3855 29.6842 31.8856 29.1741C32.3857 28.664 32.6667 27.9722 32.6667 27.2508C32.6667 26.5294 32.3857 25.8376 31.8856 25.3275C31.3855 24.8174 30.7072 24.5308 30 24.5308C29.2928 24.5308 28.6145 24.8174 28.1144 25.3275C27.6143 25.8376 27.3333 26.5294 27.3333 27.2508C27.3333 27.9722 27.6143 28.664 28.1144 29.1741C28.6145 29.6842 29.2928 29.9708 30 29.9708Z" fill="#E71D36" fill-opacity="0.4"/>
<circle cx="30" cy="27" r="3" fill="#D9D9D9"/>
</svg>
