<svg width="60" height="60" viewBox="0 0 60 60" fill="none" xmlns="http://www.w3.org/2000/svg">
<path d="M39.625 25.0235L41.55 26.4323L39.625 27.5785V25.0235ZM30 17.9623L32.1 19.5023H27.9L30 17.9623ZM22.125 21.2523H37.875V28.6285L30 33.3535L22.125 28.6285V21.2523ZM20.375 25.0235V27.5873L18.45 26.4323L20.375 25.0235ZM42.25 41.3773C42.25 41.6093 42.1578 41.8319 41.9937 41.996C41.8296 42.1601 41.6071 42.2523 41.375 42.2523H18.625C18.3929 42.2523 18.1704 42.1601 18.0063 41.996C17.8422 41.8319 17.75 41.6093 17.75 41.3773V28.051L29.5537 35.1298C29.6868 35.2066 29.8377 35.247 29.9912 35.247C30.1448 35.247 30.2957 35.2066 30.4287 35.1298L42.25 28.051V41.3773Z" fill="#E71D36" fill-opacity="0.4"/>
<path d="M21.6875 29.1252V20.3752L38.75 20.8127L38.3125 28.6877L30 33.9377L21.6875 29.1252Z" fill="#D9D9D9"/>
<path d="M43.6412 25.7935L39.625 22.8535V20.3773C39.625 20.1452 39.5328 19.9226 39.3687 19.7586C39.2046 19.5945 38.9821 19.5023 38.75 19.5023H35.0575L30.5162 16.1685C30.3664 16.059 30.1856 16 30 16C29.8144 16 29.6336 16.059 29.4837 16.1685L24.9425 19.5023H21.25C21.0179 19.5023 20.7954 19.5945 20.6313 19.7586C20.4672 19.9226 20.375 20.1452 20.375 20.3773V22.8535L16.3588 25.7935C16.2473 25.875 16.1567 25.9817 16.0943 26.1048C16.032 26.228 15.9996 26.3642 16 26.5023V41.3773C16 42.0735 16.2766 42.7411 16.7688 43.2334C17.2611 43.7257 17.9288 44.0023 18.625 44.0023H41.375C42.0712 44.0023 42.7389 43.7257 43.2311 43.2334C43.7234 42.7411 44 42.0735 44 41.3773V26.5023C44.0003 26.3642 43.968 26.228 43.9057 26.1048C43.8433 25.9817 43.7527 25.875 43.6412 25.7935ZM39.625 25.0235L41.55 26.4323L39.625 27.5785V25.0235ZM30 17.9623L32.1 19.5023H27.9L30 17.9623ZM22.125 21.2523H37.875V28.6285L30 33.3535L22.125 28.6285V21.2523ZM20.375 25.0235V27.5873L18.45 26.4323L20.375 25.0235ZM42.25 41.3773C42.25 41.6093 42.1578 41.8319 41.9937 41.996C41.8296 42.1601 41.6071 42.2523 41.375 42.2523H18.625C18.3929 42.2523 18.1704 42.1601 18.0063 41.996C17.8422 41.8319 17.75 41.6093 17.75 41.3773V28.051L29.5537 35.1298C29.6868 35.2066 29.8377 35.247 29.9912 35.247C30.1448 35.247 30.2957 35.2066 30.4287 35.1298L42.25 28.051V41.3773Z" fill="#E71D36"/>
</svg>
