<svg width="60" height="60" viewBox="0 0 60 60" fill="none" xmlns="http://www.w3.org/2000/svg">
<path opacity="0.4" d="M28.9705 21.0056L27.2669 18.3234C27.0574 17.9936 26.7337 17.7791 26.3798 17.7001C26.0258 17.6212 25.6416 17.6777 25.3118 17.8871L23.4806 19.0491L26.7044 24.1229L28.5343 22.9607C29.1955 22.5407 29.3905 21.6668 28.9705 21.0056ZM39.2758 39.8725C39.937 39.4525 40.132 38.5786 39.712 37.9174L38.0084 35.2352C37.799 34.9054 37.4752 34.6909 37.1213 34.6119C36.7673 34.533 36.3831 34.5895 36.0533 34.7989L34.2235 35.9612L37.4445 41.0344L39.2758 39.8725ZM23.3424 34.5653C26.6543 39.7778 29.7962 41.7518 32.2103 42.2905C34.0755 42.7067 35.5061 42.2668 36.2421 41.7981C36.2489 41.7938 33.0278 36.7206 33.0278 36.7206L32.5255 37.0396C32.1957 37.2491 31.8116 37.3056 31.4576 37.2266C31.1036 37.1476 30.7799 36.9332 30.5704 36.6034L24.5702 27.1564C24.1502 26.4952 24.3452 25.6214 25.0065 25.2014L25.5087 24.8823L22.2849 19.8085C20.5883 20.8872 17.4735 25.3233 23.3424 34.5653Z" fill="#E71D36"/>
<path d="M26.5273 25.076L22.357 18.5103L26.9143 16.4534C28.1606 17.756 30.6853 20.6759 30.8144 21.9342C30.9434 23.1925 28.0101 24.5531 26.5273 25.076Z" fill="#D9D9D9"/>
<path d="M37.2513 41.3009L33.0811 34.7351L37.6384 32.6782C38.8846 33.9809 41.4093 36.9008 41.5384 38.1591C41.6675 39.4174 38.7341 40.7779 37.2513 41.3009Z" fill="#D9D9D9"/>
<path d="M20.7579 17.4211L23.793 15.4958C24.7505 14.8865 25.8893 14.6877 26.9968 14.9348C28.1043 15.1819 29.0506 15.8459 29.6582 16.8045L31.3618 19.4867C32.6186 21.4654 32.0318 24.0952 30.0531 25.352L27.721 26.8333L32.2023 33.8889L34.5345 32.4076C35.492 31.7983 36.6308 31.5995 37.7383 31.8466C38.8458 32.0937 39.7921 32.7577 40.3997 33.7163L42.1033 36.3985C43.3601 38.3772 42.7733 41.007 40.7946 42.2638L37.761 44.1894C36.9746 44.6889 34.801 45.7716 31.5933 45.0558C27.7716 44.2031 24.1921 41.185 20.9511 36.0841C14.2433 25.5213 17.674 19.3835 20.7579 17.4211ZM28.9705 21.0056L27.2669 18.3234C27.0574 17.9936 26.7337 17.7791 26.3798 17.7001C26.0258 17.6212 25.6416 17.6777 25.3118 17.8871L23.4806 19.0491L26.7044 24.1229L28.5343 22.9607C29.1955 22.5407 29.3905 21.6668 28.9705 21.0056ZM39.2758 39.8725C39.937 39.4525 40.132 38.5786 39.712 37.9174L38.0084 35.2352C37.799 34.9054 37.4752 34.6909 37.1213 34.6119C36.7673 34.533 36.3831 34.5895 36.0533 34.7989L34.2235 35.9612L37.4445 41.0344L39.2758 39.8725ZM23.3424 34.5653C26.6543 39.7778 29.7962 41.7518 32.2103 42.2905C34.0755 42.7067 35.5061 42.2668 36.2421 41.7981C36.2489 41.7938 33.0278 36.7206 33.0278 36.7206L32.5255 37.0396C32.1957 37.2491 31.8116 37.3056 31.4576 37.2266C31.1036 37.1476 30.7799 36.9332 30.5704 36.6034L24.5702 27.1564C24.1502 26.4952 24.3452 25.6214 25.0065 25.2014L25.5087 24.8823L22.2849 19.8085C20.5883 20.8872 17.4735 25.3233 23.3424 34.5653Z" fill="#E71D36"/>
</svg>
