<svg width="100" height="150" viewBox="0 0 100 150" fill="none" xmlns="http://www.w3.org/2000/svg">
<g clip-path="url(#clip0_6_103)">
<path d="M14.9001 50.2125V31.084H29.4059V50.2125H14.9001ZM14.9001 118.916V99.6281H29.4059V118.916H14.9001ZM14.9001 31.084C14.9001 25.1302 16.1753 19.822 18.7258 15.1435C21.2763 10.4649 24.7274 6.79862 29.0871 4.14453C33.5504 1.37885 38.5956 0 44.2306 0V12.593C39.552 12.593 35.8857 14.187 33.2316 17.3751C30.6812 20.5632 29.4059 25.1302 29.4059 31.084H14.9001ZM14.9001 118.916H29.4059C29.4059 124.655 30.6812 129.174 33.2316 132.465C35.8857 135.757 39.552 137.407 44.2306 137.407V150C38.5956 150 33.5504 148.621 29.0871 145.855C24.7274 143.201 21.2763 139.479 18.7258 134.697C16.1753 130.019 14.9001 124.758 14.9001 118.916ZM29.4059 50.2125C29.4059 56.0547 28.0749 61.3709 25.4208 66.153C22.8703 70.8316 19.3634 74.5457 14.9001 77.3114C10.5404 79.9655 5.55098 81.2965 -0.0839844 81.2965V68.7035C4.69816 68.7035 8.36448 67.1095 10.915 63.9214C13.569 60.6296 14.9001 56.0547 14.9001 50.2125H29.4059ZM29.4059 99.7875H14.9001C14.9001 93.8337 13.569 89.2667 10.915 86.0786C8.36448 82.7869 4.69816 81.1371 -0.0839844 81.1371V68.7035C5.55098 68.7035 10.5404 70.0824 14.9001 72.848C19.3634 75.5021 22.8703 79.1684 25.4208 83.847C28.0749 88.4139 29.4059 93.7301 29.4059 99.7875Z" fill="#E71D36"/>
<path d="M83.4899 50.2125H68.9841V31.084H83.4899V50.2125ZM83.4899 118.916H68.9841V99.6281H83.4899V118.916ZM83.4899 31.084H68.9841C68.9841 25.1302 67.653 20.5632 64.9989 17.3751C62.4485 14.187 58.7821 12.593 54 12.593V0C59.635 0 64.6243 1.37885 68.9841 4.14453C73.4474 6.79862 76.9543 10.4649 79.5048 15.1435C82.1589 19.822 83.4899 25.1302 83.4899 31.084ZM83.4899 118.916C83.4899 124.758 82.1589 130.019 79.5048 134.697C76.9543 139.479 73.4474 143.201 68.9841 145.855C64.6243 148.621 59.635 150 54 150V137.407C58.7821 137.407 62.4485 135.757 64.9989 132.465C67.653 129.174 68.9841 124.655 68.9841 118.916H83.4899ZM68.9841 50.2125H83.4899C83.4899 56.0547 84.7651 60.6296 87.3156 63.9214C89.9697 67.1095 93.636 68.7035 98.3145 68.7035V81.2965C92.6796 81.2965 87.6344 79.9655 83.1711 77.3114C78.8114 74.5457 75.3602 70.8316 72.8098 66.153C70.2593 61.3709 68.9841 56.0547 68.9841 50.2125ZM68.9841 99.7875C68.9841 93.7301 70.2593 88.4139 72.8098 83.847C75.3602 79.1684 78.8114 75.5021 83.1711 72.848C87.6344 70.0824 92.6796 68.7035 98.3145 68.7035V81.1371C93.636 81.1371 89.9697 82.7869 87.3156 86.0786C84.7651 89.2667 83.4899 93.8337 83.4899 99.7875H68.9841Z" fill="#E71D36"/>
<path d="M83.4899 50.2125H68.9841V31.084H83.4899V50.2125ZM83.4899 118.916H68.9841V99.6281H83.4899V118.916ZM83.4899 31.084H68.9841C68.9841 25.1302 67.653 20.5632 64.9989 17.3751C62.4485 14.187 58.7821 12.593 54 12.593V0C59.635 0 64.6243 1.37885 68.9841 4.14453C73.4474 6.79862 76.9543 10.4649 79.5048 15.1435C82.1589 19.822 83.4899 25.1302 83.4899 31.084ZM83.4899 118.916C83.4899 124.758 82.1589 130.019 79.5048 134.697C76.9543 139.479 73.4474 143.201 68.9841 145.855C64.6243 148.621 59.635 150 54 150V137.407C58.7821 137.407 62.4485 135.757 64.9989 132.465C67.653 129.174 68.9841 124.655 68.9841 118.916H83.4899ZM68.9841 50.2125H83.4899C83.4899 56.0547 84.7651 60.6296 87.3156 63.9214C89.9697 67.1095 93.636 68.7035 98.3145 68.7035V81.2965C92.6796 81.2965 87.6344 79.9655 83.1711 77.3114C78.8114 74.5457 75.3602 70.8316 72.8098 66.153C70.2593 61.3709 68.9841 56.0547 68.9841 50.2125ZM68.9841 99.7875C68.9841 93.7301 70.2593 88.4139 72.8098 83.847C75.3602 79.1684 78.8114 75.5021 83.1711 72.848C87.6344 70.0824 92.6796 68.7035 98.3145 68.7035V81.1371C93.636 81.1371 89.9697 82.7869 87.3156 86.0786C84.7651 89.2667 83.4899 93.8337 83.4899 99.7875H68.9841Z" fill="black" fill-opacity="0.2"/>
</g>
<defs>
<clipPath id="clip0_6_103">
<rect width="100" height="150" fill="white"/>
</clipPath>
</defs>
</svg>
